<?xml version="1.0" encoding="UTF-8"?>
<svg id="Camada_1" xmlns="http://www.w3.org/2000/svg" version="1.1" viewBox="0 0 1739.78 1295.59">
  <!-- Generator: Adobe Illustrator 29.0.1, SVG Export Plug-In . SVG Version: 2.1.0 Build 192)  -->
  <defs>
    <style>
      .st0 {
        fill: #e41d18;
      }

      .st1 {
        fill: #fff;
        font-family: Gotham-Ultra, 'Gotham Ultra';
        font-size: 155px;
      }

      .st2 {
        fill: #e41415;
      }

      .st3 {
        fill: #f49517;
      }

      .st4 {
        fill: #f49619;
      }

      .st5 {
        fill: #f4971b;
      }
    </style>
  </defs>
  <g>
    <path class="st2" d="M1418.19,350.73c4.72,3.24,15.61-1.95,19.63.36,1.38.79,10.98,15.58,12.38,18.11,2.61,4.73,8.2,15.8,9.33,20.66,2.29,9.78-8.34,8.79-10.43,17.41l18.24,7.81c1.66,8.25,8.32,36.78,2.45,42.56-1.82,1.79-11.2,3.33-13.76,5.73l16.82,14.17c-2.98,129.24-81.49,262.3-209.7,299.83-95.59,27.98-209.51,1.25-255.67-93.24,4.84-14.82,10.05-29.56,12.54-45.05,6.1-38.08,3.7-73.91-15.53-107.88-2.74-4.84-10.32-12.9-10.21-17.78.13-5.49,4.77-19.49,6.54-25.55,4.83-16.51,11.14-32.73,18.45-48.27l47.98-30.51,16.26-60.47c44.65-49.52,111.59-77.02,178.14-79.86,7.4.27,9.41,12.79,14.98,17.08,2.05.01,7.27-13.46,8.98-15,2.25-2.02,13.25-.3,16.88.14,7.21.88,15.7,2.54,22.8,4.18,5.55,1.29,20.24,4.86,24.54,7.45,5.23,3.14,2.52,21.23,7.88,26.17,4.72,1.42,17.69-9.1,21.01-9.65,5.95-.99,17.45,7.67,22.23,11.33,5.16,3.96,20.1,16.25,19.9,22.6-.13,3.95-4.65,14.46-2.66,17.66ZM1347.06,363.9c-33.06,2.79-55.24,29.7-77.65,50.82-46.12-10.2-78.98,28.04-96.07,65.8-3.73,8.24-6.49,20.68-10.27,27.73-4.41,8.23-16.01,19.69-21.88,29.11-3.4,5.46-9.26,15.05-11.03,20.97-1,3.33-3.93,28.45-2.94,29.55,4.79-1.89,9.68-3.95,14.34-6.14,3.15-1.48,7.75-4.88,10.15-5.85,2.71-1.09,1.26,6.86,1.27,8.28-11.67,23.23-33.07,44.75-44.28,67.69-5.33,10.9-6.1,23.45-9.47,35.01l29.48-14,40.05-43.07c1.92-.29,7.98,5.61,10.75,7.24,19.36,11.46,43.75,7.2,61.94-4.36,37.14-23.6,58.85-83.37,63.53-125.43.9-8.06-.2-25.74,1.57-31.43,1.19-3.84,14.33-20.51,17.72-26.27,4.02-6.84,8.33-15.11,11.68-22.31,9.47-20.37,17.19-40.54,11.11-63.33Z"/>
    <path class="st2" d="M1077.26,279.87l-31.26,114.73-142.62,88.29c-.41,2.55.23,1.55,1.4,2.08,7.11,3.22,15.63,5.09,23.26,8.73,63.07,30.1,81.17,88.16,65.79,154.18-19.3,82.86-93.68,124.9-173.04,135.85-97.01,13.39-204.13-10.31-264.07-92.58l103.51-94.17,2.86.82c29,37.03,71.89,58.08,119.59,50.8,23.64-3.61,54.89-19.6,54.82-47.22-.08-29.26-35.86-31.61-57.5-32.54-21.41-.92-43.08.77-64.51.05-1.63-13.13-.67-26.34-.95-39.55-.05-2.37-1.04-4.55-1.08-6.92-.12-6.55-1.03-20.44.03-26.05.15-.79.31-1.49,1.01-1.99l129.91-85.51h-182.88l33.98-129h381.76Z"/>
    <path class="st3" d="M508.62,424.87c2.38-12.57,18.36-34.74,14.54-47.06-1.06-3.44-6.4-7.53-10.02-7.97-15.67-1.88-23.16,4.33-28.68,18.35-17.72,58.73-59.15,124.73-69.54,184.42-.25,1.42-.35,2.82-.25,4.26,11.51.45,32.18,5.61,39.99-5.49,5.49-7.81,5.75-27.52,4.98-36.99-1.01-12.23-5.97-16.75-2.02-30.05s11.57-25.47,15.02-38.47h133.92c.19,1.73-.1,3.36-.45,5.05-3.08,14.72-12.28,37.5-17.79,52.2-15.54,41.53-34.74,81.82-49.19,123.78l-1.15.85c-17.35.64-34.59,3.85-51.85,5.12-39.47,2.9-115.77,5.25-149.7-15.19-53.1-31.98-22.54-102.78-5.44-147.06,13.59-35.18,28.19-73.13,43.55-107.43,38.73-86.49,98.77-112.93,192.41-100.18,55.39,7.54,77.46,44.17,69.46,98.21-2.48,16.73-5.5,33.28-22.86,40.12-4.31,1.7-12.14,3.52-16.47,3.52h-88.44Z"/>
    <path class="st4" d="M1335.09,380.88c.78,11.3-4.13,22.73-8.52,32.96-10.52,24.51-30.22,56.05-48.46,75.51-3.11,3.32-4.92,6.83-9.83,4.61l-21.16,29.38c-9.86,1.81-14.41,15.59-20.98,23-9.73,10.97-19.28,6.64-27.82-3.18-.76-2.93,9.14-14.87,11.05-18.6.42-.82,1.72-2.11.3-2.7-23.82,6.1-43.37,23.66-61.43,39.53-6.05.55-.97-6.93.81-10.18,20.19-36.88,54.59-67.07,94.61-80.33,17.88-23.74,35.71-48.06,57.94-68.02,3.24-2.91,30.72-25.09,33.5-21.97Z"/>
    <path class="st5" d="M1221.17,608.87c-.88-.85,8.4-13.97,9.51-15.97,3.39-6.12,7.24-13.9,9.51-20.49,3.41-9.87,4.29-26.91,7.76-34.23,2.44-5.15,16.67-21.75,21.21-26.78.74-.82,5.47-5.88,5.96-5.52,5.42,40.82-13.61,87.86-53.95,102.99Z"/>
    <path class="st0" d="M1208.18,564.88c2.59,2.52-14.34,17.61-16.51,19.98-22.06,24.2-44.45,50.42-67.39,73.56-1.41,1.42-2.97,2.29-4.56,3.43l68.46-104.52,2.33-.35c4.94,4.86,10.44,8.28,17.67,7.89Z"/>
  </g>
  <text class="st1" transform="translate(453.54 974.57)"><tspan x="0" y="0">EDUCAÇÃO</tspan><tspan x="-74.87" y="140">AUTOMOTIVA</tspan></text>
</svg>